<?xml version="1.0" encoding="UTF-8" standalone="no"?>
<!DOCTYPE svg PUBLIC "-//W3C//DTD SVG 1.1//EN"
 "http://www.w3.org/Graphics/SVG/1.1/DTD/svg11.dtd">
<!-- Generated by graphviz version 2.36.0 (20140111.2315)
 -->
<!-- Title: G Pages: 1 -->
<svg width="536pt" height="222pt"
 viewBox="0.00 0.00 536.00 222.00" xmlns="http://www.w3.org/2000/svg" xmlns:xlink="http://www.w3.org/1999/xlink">
<g id="graph0" class="graph" transform="scale(1 1) rotate(0) translate(4 218)">
<title>G</title>
<polygon fill="white" stroke="none" points="-4,4 -4,-218 532,-218 532,4 -4,4"/>
<g id="clust1" class="cluster"><title>cluster_Global</title>
<path fill="none" stroke="gray" d="M338,-8C338,-8 508,-8 508,-8 514,-8 520,-14 520,-20 520,-20 520,-194 520,-194 520,-200 514,-206 508,-206 508,-206 338,-206 338,-206 332,-206 326,-200 326,-194 326,-194 326,-20 326,-20 326,-14 332,-8 338,-8"/>
<text text-anchor="middle" x="423" y="-193.2" font-family="Times,serif" font-size="11.00" fill="gray">Global</text>
</g>
<g id="clust2" class="cluster"><title>cluster_\Emombiela</title>
<path fill="none" stroke="gray" d="M346,-16C346,-16 500,-16 500,-16 506,-16 512,-22 512,-28 512,-28 512,-166 512,-166 512,-172 506,-178 500,-178 500,-178 346,-178 346,-178 340,-178 334,-172 334,-166 334,-166 334,-28 334,-28 334,-22 340,-16 346,-16"/>
<text text-anchor="middle" x="423" y="-165.2" font-family="Times,serif" font-size="11.00" fill="gray">Emombiela</text>
</g>
<g id="clust3" class="cluster"><title>cluster_\Emombiela\Iban</title>
<path fill="none" stroke="gray" d="M354,-24C354,-24 492,-24 492,-24 498,-24 504,-30 504,-36 504,-36 504,-138 504,-138 504,-144 498,-150 492,-150 492,-150 354,-150 354,-150 348,-150 342,-144 342,-138 342,-138 342,-36 342,-36 342,-30 348,-24 354,-24"/>
<text text-anchor="middle" x="423" y="-137.2" font-family="Times,serif" font-size="11.00" fill="gray">Iban</text>
</g>
<!-- \\Emombiela\\Iban\\IbanServiceProvider -->
<g id="node1" class="node"><title>\\Emombiela\\Iban\\IbanServiceProvider</title>
<polygon fill="none" stroke="black" points="495.5,-122 350.5,-122 350.5,-86 495.5,-86 495.5,-122"/>
<text text-anchor="middle" x="423" y="-101.2" font-family="Courier,monospace" font-size="11.00">IbanServiceProvider</text>
</g>
<!-- \\Illuminate\\Support\\ServiceProvider -->
<g id="node3" class="node"><title>\\Illuminate\\Support\\ServiceProvider</title>
<ellipse fill="none" stroke="black" cx="139" cy="-104" rx="139.175" ry="18"/>
<text text-anchor="middle" x="139" y="-100.3" font-family="Times,serif" font-size="14.00" fill="gray">\Illuminate\Support\ServiceProvider</text>
</g>
<!-- \\Emombiela\\Iban\\IbanServiceProvider&#45;&gt;\\Illuminate\\Support\\ServiceProvider -->
<g id="edge1" class="edge"><title>\\Emombiela\\Iban\\IbanServiceProvider&#45;&gt;\\Illuminate\\Support\\ServiceProvider</title>
<path fill="none" stroke="black" d="M350.475,-104C331.388,-104 310.036,-104 288.451,-104"/>
<polygon fill="none" stroke="black" points="288.186,-100.5 278.186,-104 288.186,-107.5 288.186,-100.5"/>
</g>
<!-- \\Emombiela\\Iban\\Iban -->
<g id="node2" class="node"><title>\\Emombiela\\Iban\\Iban</title>
<polygon fill="none" stroke="black" points="450,-68 396,-68 396,-32 450,-32 450,-68"/>
<text text-anchor="middle" x="423" y="-47.2" font-family="Courier,monospace" font-size="11.00">Iban</text>
</g>
</g>
</svg>
